<svg xmlns="http://www.w3.org/2000/svg" xmlns:xlink="http://www.w3.org/1999/xlink" width="482" height="413" version="1.1" viewBox="0 0 482 413"><title>add-folder 2</title><desc>Created with Sketch.</desc><g id="Page-1" fill="none" fill-rule="evenodd" stroke="none" stroke-width="1"><g id="add-folder"><path id="Path" fill="#E48E66" d="M420,132.800781 L420,329.699219 C420.007812,351.792969 402.09375,369.707031 380,369.699219 L50,369.699219 C27.90625,369.707031 9.992188,351.792969 10,329.699219 L10,92.800781 L224,92.800781 L224.300781,91.699219 C227.4375,92.503906 230.664062,92.90625 233.898438,92.898438 L380,92.898438 C390.605469,92.859375 400.789062,97.042969 408.296875,104.535156 C415.804688,112.023438 420.015625,122.195312 420,132.800781 Z"/><path id="Path" fill="#D18162" d="M215,92.800781 L9.99999745,92.800781 L10,329.699219 C9.992188,351.792969 27.90625,369.707031 50,369.699219 L215,369.699222 L215,92.800781 Z"/><path id="Path" fill="#F8EC7D" d="M224.199219,91.699219 L223.898438,92.800781 L9.99999745,92.800781 L10,50.101562 C9.992188,28.007812 27.90625,10.09375 50,10.101562 L142.101562,10.101562 C157.011719,10.109375 170.683594,18.390625 177.601562,31.601562 L198.199219,71.300781 C203.558594,81.5 213.019531,88.925781 224.199219,91.699219 Z"/><path id="Shape" fill="#63316D" fill-rule="nonzero" d="M380,82.800781 L233.699219,82.800781 C222.511719,82.761719 212.269531,76.523438 207.101562,66.601562 L186.5,26.898438 C177.945312,10.339844 160.839844,-0.046875 142.199219,-1.0658141e-14 L50,-1.0658141e-14 C22.390625,0.0117188 0.0117188,22.390625 0,50 L0,329.601562 C0.0117188,357.210938 22.390625,379.589844 50,379.601562 L380,379.601562 C407.609375,379.589844 429.988281,357.210938 430,329.601562 L430,132.800781 C429.988281,105.191406 407.609375,82.808594 380,82.800781 Z M50,20.101562 L142.101562,20.101562 C153.273438,20.097656 163.523438,26.300781 168.699219,36.199219 L189.300781,75.898438 C190.578125,78.292969 192.015625,80.597656 193.601562,82.800781 L20,82.800781 L20,50.101562 C20.046875,33.550781 33.453125,20.148438 50,20.101562 Z M410,329.699219 C409.953125,346.25 396.546875,359.652344 380,359.699219 L50,359.699219 C33.453125,359.652344 20.046875,346.25 20,329.699219 L20,102.800781 L223.898438,102.800781 C224.878906,102.773438 225.851562,102.636719 226.800781,102.398438 C229.085938,102.714844 231.390625,102.882812 233.699219,102.898438 L380,102.898438 C396.546875,102.949219 409.953125,116.351562 410,132.898438 L410,329.699219 Z"/><ellipse id="Oval" cx="379.5" cy="312" fill="#63316D" stroke="#979797" rx="102.5" ry="101"/><ellipse id="Oval" cx="380" cy="312.5" fill="#F8EC7D" stroke="#979797" rx="85" ry="85.5"/><path id="Path" fill="#63316D" d="M441.849991,303.163846 L391.552352,303.163846 L391.552352,257.636935 C391.552352,251.76169 386.291687,247 379.800781,247 C373.309874,247 368.04921,251.76169 368.04921,257.636935 L368.04921,303.163846 L317.751571,303.163846 C311.265254,303.163846 306,307.925536 306,313.800781 C306,319.676026 311.265254,324.437716 317.751571,324.437716 L368.04921,324.437716 L368.04921,369.964627 C368.04921,375.839872 373.309874,380.601562 379.800781,380.601562 C386.291687,380.601562 391.552352,375.839872 391.552352,369.964627 L391.552352,324.437716 L441.849991,324.437716 C448.340899,324.437716 453.601562,319.676026 453.601562,313.800781 C453.601562,307.925536 448.340899,303.163846 441.849991,303.163846 Z"/></g></g></svg>