<svg height="470pt" viewBox="-11 0 470 470.00071" width="470pt" xmlns="http://www.w3.org/2000/svg"><path d="m348 113.199219v146.800781l-.101562.5c-3.417969-.367188-6.859376-.535156-10.296876-.5-55.222656.019531-99.980468 44.78125-100 100-.019531 10.144531 1.535157 20.230469 4.597657 29.898438l-.199219.101562h-191.898438c-22.09375.007812-40.007812-17.90625-40-40v-236.800781zm0 0" fill="#e48e66"/><path d="m257.101562 39h51c22.09375-.007812 40.003907 17.90625 40 40v34.199219h-338v-34.199219c-.007812-22.09375 17.90625-40.007812 40-40zm0 0" fill="#f8ec7d"/><path d="m184.398438 113.199219h-174.296876v236.800781c-.007812 22.09375 17.90625 40.007812 40 40h134.296876zm0 0" fill="#d18162"/><path d="m184.398438 39.101562h-134.296876c-22.09375-.007812-40.007812 17.90625-40 40v34.199219h174.199219v-74.199219zm0 0" fill="#e2d574"/><path d="m348 260.5c49.75 5.132812 88.0625 46.226562 89.695312 96.214844 1.636719 49.988281-33.90625 93.5-83.214843 101.875-49.308594 8.371094-97.222657-20.964844-112.179688-68.691406-3.066406-9.667969-4.617187-19.753907-4.601562-29.898438.019531-55.21875 44.78125-99.980469 100-100 3.5 0 6.902343.199219 10.300781.5zm0 0" fill="#f8ec7d"/><g fill="#63316d"><path d="m390.5 350h-42.800781v-42.800781c0-5.523438-4.476563-10-10-10-5.523438 0-10 4.476562-10 10v42.800781h-42.800781c-5.519532 0-10 4.476562-10 10s4.480468 10 10 10h42.800781v42.800781c0 5.523438 4.476562 10 10 10 5.523437 0 10-4.476562 10-10v-42.800781h42.800781c5.523438 0 10-4.476562 10-10s-4.476562-10-10-10zm0 0"/><path d="m91.601562 229.101562h155c5.523438 0 10-4.480468 10-10 0-5.523437-4.476562-10-10-10h-155c-5.523437 0-10 4.476563-10 10 0 5.519532 4.476563 10 10 10zm0 0"/><path d="m184.398438 274.101562h-92.796876c-5.523437 0-10 4.476563-10 10 0 5.519532 4.476563 10 10 10h92.796876c5.523437 0 10-4.480468 10-10 0-5.523437-4.476563-10-10-10zm0 0"/><path d="m358 251.898438v-172.898438c-.007812-27.609375-22.390625-49.988281-50-50h-41v-19c0-5.523438-4.476562-10-10-10s-10 4.476562-10 10v19h-136v-19c0-5.523438-4.476562-10-10-10s-10 4.476562-10 10v19h-41c-27.609375.011719-49.9882812 22.390625-50 50v271c.0117188 27.609375 22.390625 49.988281 50 50h185.101562c7.566407 19.136719 20.265626 35.8125 36.699219 48.199219 18.9375 14.230469 42.007813 21.886719 65.699219 21.800781 43.53125.023438 82.972656-25.636719 100.59375-65.441406 17.617188-39.800782 10.09375-86.253906-19.195312-118.457032-15.957032-17.820312-37.375-29.847656-60.898438-34.203124zm-307.898438-202.898438h41v19.101562c0 5.519532 4.476563 10 10 10 5.523438 0 10-4.480468 10-10v-19.101562h136v19.101562c0 5.519532 4.476563 10 10 10 5.523438 0 10-4.480468 10-10v-19.101562h41c16.546876.046875 29.949219 13.453125 30 30v24.199219h-318v-24.199219c.046876-16.546875 13.449219-29.953125 30-30zm-30 301v-226.800781h317.898438v126.800781h-.398438c-32.660156.050781-63.617187 14.585938-84.511718 39.691406-20.890625 25.101563-29.570313 58.183594-23.691406 90.308594h-179.296876c-16.550781-.046875-29.953124-13.453125-30-30zm317.597657 100c-19.382813.03125-38.257813-6.214844-53.800781-17.800781-31.089844-23.175781-43.832032-63.667969-31.617188-100.472657 12.214844-36.804687 46.640625-61.640624 85.417969-61.625 3.101562 0 6.199219.199219 9.300781.5 47.671875 4.871094 83.152344 46.265626 80.671875 94.121094-2.480469 47.855469-42.050781 85.363282-89.972656 85.277344zm0 0"/></g></svg>