<svg height="400pt" viewBox="-22 0 400 400.00001" width="400pt" xmlns="http://www.w3.org/2000/svg"><path d="m338.550781 163.820312c11.523438 13.15625 10.230469 33.15625-2.890625 44.71875l-17.429687 15.371094-.199219-.21875-43.808594-50.050781 17.320313-15.21875c13.164062-11.582031 33.222656-10.296875 44.804687 2.867187l.054688.0625zm0 0" fill="#e48e66"/><path d="m297.160156 242.488281-24.140625 21.28125-1.21875 1.070313-57.46875 50.320312-55.230469 3.148438 11.28125-53.359375 103.839844-91.308594 43.808594 50.050781.199219.21875zm0 0" fill="#e2d574"/><path d="m274.222656 173.640625-103.839844 91.308594-11.28125 53.359375 55.230469-3.148438 57.46875-50.320312 1.21875-1.070313 24.140625-21.28125v117.242188c-.003906 16.71875-13.558594 30.273437-30.277344 30.269531h-227.023437c-16.714844 0-30.265625-13.546875-30.269531-30.265625v-319.464844c0-16.714843 13.550781-30.269531 30.265625-30.269531h172.855469l1.921874.191406v82.328125h82.527344v61.871094l.03125.058594c-2.023437 1.113281-3.917968 2.445312-5.648437 3.972656zm0 0" fill="#e48e66"/><path d="m297.160156 92.308594v.210937h-82.527344v-82.328125l.21875.019532zm0 0" fill="#e2d574"/><path d="m115.652344 10h-75.792969c-16.714844 0-30.265625 13.546875-30.269531 30.265625v319.464844c0 16.714843 13.550781 30.269531 30.265625 30.269531h75.800781zm0 0" fill="#d18162"/><g fill="#63316d"><path d="m343.84375 154.761719c-9.1875-10.5-23.015625-15.703125-36.84375-13.863281v-48.589844c.03125-2.644532-.996094-5.195313-2.855469-7.078125l-82.269531-82.101563c-.054688-.054687-.09375-.101562-.152344-.152344-1.871094-1.90625-4.429687-2.98046825-7.101562-2.976562-.320313 0-.632813.0195312-.945313.046875-.320312-.03125-.640625-.046875-.964843-.046875h-172.851563c-22.070313.0585938-39.9179688 18-39.859375 40.070312v.199219 319.460938c-.167969 22.070312 17.589844 40.101562 39.664062 40.269531h227.21875c22.191407-.035156 40.152344-18.054688 40.117188-40.246094v-112.753906l35.191406-30.960938c17.210938-15.21875 18.917969-41.46875 3.824219-58.785156zm-51.667969 78.789062c-1.152343.667969-2.164062 1.554688-2.96875 2.617188l-22.78125 20.085937-56.097656 49.117188-38.742187 2.210937 7.890624-37.3125 93.820313-82.5 30.84375 35.230469zm-67.175781-199.460937 48.1875 48.910156h-48.1875zm41.882812 345.910156h-227.023437c-11.011719-.046875-19.90625-9.015625-19.859375-20.027344 0-.082031 0-.164062 0-.242187v-319.460938c-.179688-11.015625 8.605469-20.089843 19.621094-20.269531h165.378906v72.519531c0 5.523438 4.109375 10.480469 9.632812 10.480469h72.367188v46.101562c-.78125.515626-1.5 1.121094-2.140625 1.804688l-15.738281 13.867188c-1.191406.6875-2.230469 1.609374-3.054688 2.710937l-102.296875 89.957031c-1.621093 1.421875-2.734375 3.332032-3.179687 5.441406l-11.277344 53.359376c-.625 2.949218.117188 6.023437 2.015625 8.367187 1.902344 2.34375 4.757813 3.703125 7.773437 3.699219.191407 0 .378907 0 .570313-.015625l55.230469-3.148438c2.222656-.125 4.339844-.992187 6.015625-2.460937l57.402343-50.328125 8.679688-7.722657v95.097657c.058594 11.136719-8.917969 20.210937-20.054688 20.269531zm62.164063-178.960938-9.90625 8.734376-30.820313-35.210938 9.832032-8.640625c9.019531-7.925781 22.761718-7.039063 30.691406 1.980469l.007812.011718 2.167969 2.492188c7.875 9.019531 6.992188 22.699219-1.972656 30.632812zm0 0"/><path d="m67.691406 141h80.078125c5.523438 0 10-4.476562 10-10s-4.476562-10-10-10h-80.078125c-5.523437 0-10 4.476562-10 10s4.476563 10 10 10zm0 0"/><path d="m204.152344 196c0-5.523438-4.476563-10-10-10h-126.460938c-5.523437 0-10 4.476562-10 10s4.476563 10 10 10h126.460938c5.523437 0 10-4.476562 10-10zm0 0"/></g></svg>