<?xml version="1.0" encoding="iso-8859-1"?>
<!-- Generator: Adobe Illustrator 19.0.0, SVG Export Plug-In . SVG Version: 6.00 Build 0)  -->
<svg version="1.1" id="Layer_1" xmlns="http://www.w3.org/2000/svg" xmlns:xlink="http://www.w3.org/1999/xlink" x="0px" y="0px"
	 viewBox="0 0 512 512" style="enable-background:new 0 0 512 512;" xml:space="preserve">
<g transform="translate(1 1)">
	<path d="M417.133,502.467H92.867c-46.933,0-85.333-38.4-85.333-85.333V92.867c0-46.933,38.4-85.333,85.333-85.333h324.267
		c46.933,0,85.333,38.4,85.333,85.333v324.267C502.467,464.067,464.067,502.467,417.133,502.467"/>
	<path d="M417.133,511H92.867C40.813,511-1,469.187-1,417.133V92.867C-1,40.813,40.813-1,92.867-1h324.267
		C469.187-1,511,40.813,511,92.867v324.267C511,469.187,469.187,511,417.133,511z M92.867,16.067c-42.667,0-76.8,34.133-76.8,76.8
		v324.267c0,42.667,34.133,76.8,76.8,76.8h324.267c42.667,0,76.8-34.133,76.8-76.8V92.867c0-42.667-34.133-76.8-76.8-76.8H92.867z"
		/>
	<path style="fill:#FFFFFF;" d="M365.933,289.133C304.493,289.133,255,239.64,255,178.2S304.493,67.267,365.933,67.267
		S476.867,116.76,476.867,178.2S427.373,289.133,365.933,289.133"/>
	<path d="M365.933,246.467c-37.547,0-68.267-30.72-68.267-68.267s30.72-68.267,68.267-68.267S434.2,140.653,434.2,178.2
		S403.48,246.467,365.933,246.467z M365.933,127c-28.16,0-51.2,23.04-51.2,51.2s23.04,51.2,51.2,51.2s51.2-23.04,51.2-51.2
		S394.093,127,365.933,127z"/>
	<path d="M186.733,417.133c-24.747,0-46.08-15.36-55.467-38.4l-6.827-17.92l33.28,12.8c14.507,5.12,30.72-0.853,35.84-14.507
		c5.12-13.653-3.413-29.013-17.92-34.133l-31.573-13.653l17.067-8.533c7.68-3.413,16.213-5.973,25.6-5.973
		c33.28,0,59.733,26.453,59.733,59.733S220.013,417.133,186.733,417.133z M161.987,391.533c6.827,5.12,15.36,8.533,24.747,8.533
		c23.893,0,42.667-18.773,42.667-42.667c0-21.333-15.36-39.253-35.84-41.813c15.36,11.947,22.187,31.573,16.213,49.493
		C202.947,383.853,182.467,394.093,161.987,391.533z"/>
	<g>
		<path style="fill:#FFFFFF;" d="M193.56,246.467c55.467,3.413,100.693,47.787,104.107,104.107l92.16-64.853
			c-6.827,1.707-14.507,2.56-22.187,2.56c-61.44,0-110.933-49.493-110.933-110.933c0-9.387,1.707-18.773,3.413-27.307
			L193.56,246.467z"/>
		<path style="fill:#FFFFFF;" d="M186.733,263.533c-20.48,0-37.547,5.12-52.907,16.213l50.347,21.333
			c27.307,10.24,42.667,40.107,32.427,66.56c-7.68,20.48-26.453,33.28-49.493,33.28c-6.827,0-12.8-0.853-19.627-3.413
			l-52.907-21.333c11.093,41.813,47.787,75.093,92.16,75.093c52.053,0,93.867-41.813,93.867-93.867S238.787,263.533,186.733,263.533
			"/>
		<path style="fill:#FFFFFF;" d="M33.133,255L178.2,316.44c19.627,7.68,29.867,27.307,23.04,45.227l0,0
			c-6.827,17.92-27.307,26.453-46.933,19.627l-121.173-48.64V255z"/>
	</g>
</g>
<g>
</g>
<g>
</g>
<g>
</g>
<g>
</g>
<g>
</g>
<g>
</g>
<g>
</g>
<g>
</g>
<g>
</g>
<g>
</g>
<g>
</g>
<g>
</g>
<g>
</g>
<g>
</g>
<g>
</g>
</svg>
