<svg height="400pt" viewBox="-8 0 400 400.016" width="400pt" xmlns="http://www.w3.org/2000/svg"><path d="m373.246094 86.644531v64.839844h-363.238282v-64.839844c0-18.738281 15.191407-33.925781 33.929688-33.929687h21.558594v4.121094c0 14.230468 11.539062 25.765624 25.765625 25.765624 14.230469 0 25.765625-11.535156 25.765625-25.765624v-4.121094h149.199218v4.121094c-.007812 14.226562 11.515626 25.769531 25.742188 25.777343 14.226562.011719 25.769531-11.515625 25.777344-25.742187v-4.15625h21.570312c18.738282 0 33.929688 15.191406 33.929688 33.929687zm0 0" fill="#f8ec7d"/><path d="m373.246094 151.484375v204.601563c0 18.738281-15.1875 33.929687-33.925782 33.929687h-295.382812c-18.738281 0-33.929688-15.1875-33.929688-33.925781v-204.605469zm-151.859375 137.5 29.75-28.4375-41.117188-5.851563-18.390625-36.53125-18.390625 36.53125-41.121093 5.851563 29.75 28.4375-7.019532 40.152344 36.78125-18.960938 36.777344 18.960938zm0 0" fill="#e48e66"/><path d="m191.628906 151.484375h-181.621094v204.601563c0 18.738281 15.191407 33.929687 33.929688 33.929687h147.691406zm0 0" fill="#d18162"/><path d="m191.628906 52.714844h-74.601562v4.121094c0 14.230468-11.535156 25.765624-25.765625 25.765624s-25.765625-11.535156-25.765625-25.765624v-4.121094h-21.558594c-18.738281 0-33.929688 15.191406-33.929688 33.929687v64.839844h181.621094zm0 0" fill="#e2d574"/><path d="m251.136719 260.546875-29.75 28.4375 7.019531 40.152344-36.777344-18.960938-36.78125 18.960938 7.019532-40.152344-29.75-28.4375 41.121093-5.851563 18.390625-36.53125 18.390625 36.53125zm0 0" fill="#e2d574"/><path d="m317.746094 52.714844v4.121094c.011718 14.226562-11.511719 25.769531-25.738282 25.777343-14.230468.011719-25.769531-11.515625-25.78125-25.742187v-21.09375c-.007812-14.226563 11.515626-25.769532 25.742188-25.78125 14.226562-.007813 25.769531 11.515625 25.777344 25.742187zm0 0" fill="#e48e66"/><path d="m65.496094 52.714844v-16.9375c0-14.230469 11.539062-25.765625 25.765625-25.765625 14.230469 0 25.765625 11.535156 25.765625 25.765625v21.058594c0 14.230468-11.535156 25.765624-25.765625 25.765624-14.226563 0-25.765625-11.535156-25.765625-25.765624zm0 0" fill="#e48e66"/><g fill="#63316d"><path d="m383.246094 148.316406v-61.671875c-.027344-24.25-19.679688-43.902343-43.929688-43.929687h-11.570312v-6.9375c.011718-19.75-15.992188-35.7695315-35.742188-35.777344s-35.765625 15.996094-35.777344 35.742188v6.972656h-129.199218v-6.9375c0-19.753906-16.011719-35.7656252-35.765625-35.7656252-19.75 0-35.765625 16.0117192-35.765625 35.7656252v6.9375h-11.558594c-24.25.027344-43.9023438 19.679687-43.9296875 43.929687v269.441407c.0273437 24.25 19.6796875 43.902343 43.9296875 43.929687h295.378906c24.25-.027344 43.902344-19.679687 43.929688-43.929687v-201.433594c.695312-2.054688.695312-4.277344 0-6.332032zm-107.019532-112.539062c-.007812-8.707032 7.042969-15.765625 15.746094-15.773438 8.707032-.007812 15.769532 7.042969 15.773438 15.746094v14.808594c-.316406 1.421875-.316406 2.894531 0 4.316406v1.960938c.007812 8.703124-7.039063 15.765624-15.746094 15.773437-8.703125.007813-15.765625-7.042969-15.773438-15.746094zm-184.957031-15.761719c8.703125 0 15.757813 7.054687 15.757813 15.761719v21.058594c0 8.707031-7.058594 15.765624-15.765625 15.765624s-15.765625-7.058593-15.765625-15.765624v-21.058594c.015625-8.703125 7.070312-15.753906 15.773437-15.761719zm-47.332031 42.699219h12.050781c2.875 17.242187 17.792969 29.878906 35.273438 29.878906s32.398437-12.636719 35.273437-29.878906h130.183594c2.875 17.242187 17.789062 29.878906 35.269531 29.878906s32.394531-12.636719 35.269531-29.878906h12.058594c13.210938.015625 23.917969 10.722656 23.929688 23.929687v54.839844h-343.238282v-54.839844c.015626-13.207031 10.71875-23.914062 23.929688-23.929687zm295.378906 317.300781h-295.378906c-13.210938-.015625-23.914062-10.71875-23.929688-23.929687v-194.601563h343.238282v194.601563c-.011719 13.210937-10.71875 23.914062-23.929688 23.929687zm0 0"/><path d="m252.546875 250.644531-35.945313-5.113281-16.042968-31.863281c-1.699219-3.375-5.152344-5.503907-8.929688-5.503907s-7.234375 2.128907-8.933594 5.503907l-16.039062 31.863281-35.945312 5.113281c-3.792969.542969-6.941407 3.199219-8.113282 6.84375-1.171875 3.648438-.15625 7.640625 2.613282 10.285157l25.886718 24.75-6.101562 34.890624c-.652344 3.742188.867187 7.53125 3.929687 9.78125 3.058594 2.25 7.128907 2.570313 10.503907.828126l32.203124-16.597657 32.199219 16.597657c3.375 1.738281 7.441407 1.414062 10.5-.832032 3.058594-2.25 4.578125-6.035156 3.925781-9.777344l-6.097656-34.886718 25.886719-24.75c2.769531-2.644532 3.785156-6.640625 2.613281-10.285156-1.171875-3.644532-4.320312-6.304688-8.113281-6.84375zm-38.070313 31.113281c-2.410156 2.304688-3.515624 5.664063-2.941406 8.949219l3.554688 20.308594-18.878906-9.734375c-2.875-1.480469-6.292969-1.480469-9.164063 0l-18.878906 9.734375 3.550781-20.3125c.574219-3.285156-.527344-6.644531-2.941406-8.949219l-14.867188-14.207031 20.738282-2.949219c3.238281-.460937 6.046874-2.480468 7.523437-5.402344l9.457031-18.785156 9.457032 18.785156c1.472656 2.921876 4.28125 4.9375 7.523437 5.398438l20.734375 2.953125zm0 0"/></g></svg>