<svg xmlns="http://www.w3.org/2000/svg" xmlns:xlink="http://www.w3.org/1999/xlink" width="482" height="413" version="1.1" viewBox="0 0 482 413"><title>add-folder 2</title><desc>Created with Sketch.</desc><g id="Page-1" fill="none" fill-rule="evenodd" stroke="none" stroke-width="1"><g id="add-folder"><path id="Path" fill="#E48E66" d="M420,132.800781 L420,329.699219 C420.007812,351.792969 402.09375,369.707031 380,369.699219 L50,369.699219 C27.90625,369.707031 9.992188,351.792969 10,329.699219 L10,92.800781 L224,92.800781 L224.300781,91.699219 C227.4375,92.503906 230.664062,92.90625 233.898438,92.898438 L380,92.898438 C390.605469,92.859375 400.789062,97.042969 408.296875,104.535156 C415.804688,112.023438 420.015625,122.195312 420,132.800781 Z"/><path id="Path" fill="#D18162" d="M215,92.800781 L9.99999745,92.800781 L10,329.699219 C9.992188,351.792969 27.90625,369.707031 50,369.699219 L215,369.699222 L215,92.800781 Z"/><path id="Path" fill="#F8EC7D" d="M224.199219,91.699219 L223.898438,92.800781 L9.99999745,92.800781 L10,50.101562 C9.992188,28.007812 27.90625,10.09375 50,10.101562 L142.101562,10.101562 C157.011719,10.109375 170.683594,18.390625 177.601562,31.601562 L198.199219,71.300781 C203.558594,81.5 213.019531,88.925781 224.199219,91.699219 Z"/><path id="Shape" fill="#63316D" fill-rule="nonzero" d="M380,82.800781 L233.699219,82.800781 C222.511719,82.761719 212.269531,76.523438 207.101562,66.601562 L186.5,26.898438 C177.945312,10.339844 160.839844,-0.046875 142.199219,-1.0658141e-14 L50,-1.0658141e-14 C22.390625,0.0117188 0.0117188,22.390625 0,50 L0,329.601562 C0.0117188,357.210938 22.390625,379.589844 50,379.601562 L380,379.601562 C407.609375,379.589844 429.988281,357.210938 430,329.601562 L430,132.800781 C429.988281,105.191406 407.609375,82.808594 380,82.800781 Z M50,20.101562 L142.101562,20.101562 C153.273438,20.097656 163.523438,26.300781 168.699219,36.199219 L189.300781,75.898438 C190.578125,78.292969 192.015625,80.597656 193.601562,82.800781 L20,82.800781 L20,50.101562 C20.046875,33.550781 33.453125,20.148438 50,20.101562 Z M410,329.699219 C409.953125,346.25 396.546875,359.652344 380,359.699219 L50,359.699219 C33.453125,359.652344 20.046875,346.25 20,329.699219 L20,102.800781 L223.898438,102.800781 C224.878906,102.773438 225.851562,102.636719 226.800781,102.398438 C229.085938,102.714844 231.390625,102.882812 233.699219,102.898438 L380,102.898438 C396.546875,102.949219 409.953125,116.351562 410,132.898438 L410,329.699219 Z"/><polygon id="Path" fill="#E2D574" points="291.02 219.021 257.02 252.584 265.042 299.973 223.012 277.594 180.977 299.973 188.999 252.584 155 219.021 201.995 212.115 223.012 169 244.029 212.115"/><path id="Shape" fill="#63316D" fill-rule="nonzero" d="M312.772837,194.166274 L257.44115,186.201985 L232.745734,136.572717 C230.130075,131.31592 224.814578,128 219,128 C213.185422,128 207.863912,131.31592 205.248254,136.572717 L180.55885,186.201985 L125.227164,194.166274 C119.388535,195.011986 114.542051,199.149279 112.738149,204.825889 C110.934247,210.508584 112.497628,216.726692 116.760851,220.845734 L156.609044,259.395573 L147.216729,313.740138 C146.212556,319.568855 148.551616,325.470582 153.265813,328.975113 C157.973997,332.479643 164.239551,332.978553 169.434788,330.264976 L219.006013,304.412975 L268.571226,330.264976 C273.766463,332.972469 280.026004,332.467476 284.734187,328.969029 C289.442372,325.464498 291.781431,319.568855 290.777258,313.740138 L281.390956,259.401657 L321.23915,220.851817 C325.502372,216.732776 327.065753,210.508584 325.261851,204.831974 C323.457949,199.155363 318.611467,195.011986 312.772837,194.172359 L312.772837,194.166274 Z M255.137589,242.417703 C251.431308,246.008299 249.731346,251.242047 250.614365,256.360166 L256.08068,288 L227.049144,272.834302 C222.628037,270.527801 217.371965,270.527801 212.956864,272.834302 L183.925328,288 L189.385635,256.35408 C190.268656,251.235962 188.574698,246.002214 184.862411,242.411618 L162,220.277732 L193.89084,215.682987 C198.870593,214.964869 203.189581,211.818535 205.460204,207.26639 L220.003003,178 L234.545804,207.26639 C236.810419,211.818535 241.129409,214.958782 246.115168,215.676902 L278,220.277732 L255.137589,242.417703 Z"/></g></g></svg>