<svg height="430pt" viewBox="0 -25 430 430" width="430pt" xmlns="http://www.w3.org/2000/svg"><path d="m420 132.800781v196.898438c.007812 22.09375-17.90625 40.007812-40 40h-330c-22.09375.007812-40.007812-17.90625-40-40v-236.898438h214l.300781-1.101562c3.136719.804687 6.363281 1.207031 9.597657 1.199219h146.101562c10.605469-.039063 20.789062 4.144531 28.296875 11.636718 7.507813 7.488282 11.71875 17.660156 11.703125 28.265625zm0 0" fill="#e48e66"/><path d="m215 92.800781h-205v236.898438c-.007812 22.09375 17.90625 40.007812 40 40h165zm0 0" fill="#d18162"/><path d="m224.199219 91.699219-.300781 1.101562h-213.898438v-42.699219c-.007812-22.09375 17.90625-40.007812 40-40h92.101562c14.910157.007813 28.582032 8.289063 35.5 21.5l20.597657 39.699219c5.359375 10.199219 14.820312 17.625 26 20.398438zm0 0" fill="#f8ec7d"/><path d="m380 82.800781h-146.300781c-11.1875-.039062-21.429688-6.277343-26.597657-16.199219l-20.601562-39.703124c-8.554688-16.558594-25.660156-26.945313-44.300781-26.898438h-92.199219c-27.609375.0117188-49.9882812 22.390625-50 50v279.601562c.0117188 27.609376 22.390625 49.988282 50 50h330c27.609375-.011718 49.988281-22.390624 50-50v-196.800781c-.011719-27.609375-22.390625-49.992187-50-50zm-330-62.699219h92.101562c11.171876-.003906 21.421876 6.199219 26.597657 16.097657l20.601562 39.699219c1.277344 2.394531 2.714844 4.699218 4.300781 6.902343h-173.601562v-32.699219c.046875-16.550781 13.453125-29.953124 30-30zm360 309.597657c-.046875 16.550781-13.453125 29.953125-30 30h-330c-16.546875-.046875-29.953125-13.449219-30-30v-226.898438h203.898438c.980468-.027343 1.953124-.164062 2.902343-.402343 2.285157.316406 4.589844.484374 6.898438.5h146.300781c16.546875.050781 29.953125 13.453124 30 30zm0 0" fill="#63316d"/></svg>