<?xml version="1.0" encoding="iso-8859-1"?>
<!-- Generator: Adobe Illustrator 19.0.0, SVG Export Plug-In . SVG Version: 6.00 Build 0)  -->
<svg version="1.1" id="Capa_1" xmlns="http://www.w3.org/2000/svg" xmlns:xlink="http://www.w3.org/1999/xlink" x="0px" y="0px"
	 viewBox="0 0 512 512" style="enable-background:new 0 0 512 512;" xml:space="preserve">
<g transform="matrix(1.25 0 0 -1.25 0 45)">
	<g>
		<g>
			<path style="fill:#EBC05C;" d="M409.6-328.089c0-25.134-20.378-45.511-45.511-45.511H45.511C20.378-373.6,0-353.222,0-328.089
				V-9.511C0,15.622,20.378,36,45.511,36h318.578C389.222,36,409.6,15.622,409.6-9.511V-328.089z"/>
			<path style="fill:#000000;" d="M291.954-145.134c22.221,0,31.05-11.287,31.05-33.872c0-68.085-44.453-119.239-115.007-119.239
				c-71.612,0-121.355,56.809-121.355,129.832c0,73.375,49.38,129.82,121.355,129.82c53.271,0,96.996-25.042,96.996-49.744
				c0-15.167-9.5-24.69-21.857-24.69c-23.984,0-28.922,25.748-75.139,25.748c-44.1,0-66.321-38.446-66.321-81.135
				c0-43.042,21.515-81.146,66.321-81.146c27.864,0,59.984,15.531,59.984,55.74h-35.999c-14.461,0-24.69,10.24-24.69,24.701
				c0,14.814,11.287,23.984,24.69,23.984L291.954-145.134z"/>
		</g>
	</g>
</g>
<g>
</g>
<g>
</g>
<g>
</g>
<g>
</g>
<g>
</g>
<g>
</g>
<g>
</g>
<g>
</g>
<g>
</g>
<g>
</g>
<g>
</g>
<g>
</g>
<g>
</g>
<g>
</g>
<g>
</g>
</svg>
