<svg height="402pt" viewBox="-21 0 402 402.3" width="402pt" xmlns="http://www.w3.org/2000/svg"><path d="m101.648438 39.300781h208.5c22.09375-.007812 40.007812 17.90625 40 40v34.597657h-340v-34.597657c-.003907-22.09375 17.90625-40.007812 40-40zm0 0" fill="#e48e66"/><path d="m350.148438 113.898438v238.5c.007812 22.09375-17.90625 40.007812-40 40h-260c-22.09375.007812-40.003907-17.90625-40-40v-238.5zm0 0" fill="#f8ec7d"/><path d="m179.550781 113.898438h-169.402343v238.5c0 22.101562 19.902343 40 44.5 40h124.902343zm0 0" fill="#e2d574"/><path d="m179.550781 39.300781h-124.902343c-24.597657 0-44.5 17.898438-44.5 40v34.597657h169.402343zm0 0" fill="#d18162"/><g fill="#63316d"><path d="m310.148438 29.300781h-41.5v-19.300781c0-5.523438-4.476563-10-10-10-5.519532 0-10 4.476562-10 10v19.199219h-137v-19.199219c0-5.523438-4.476563-10-10-10-5.519532 0-10 4.476562-10 10v19.199219h-41.5c-27.609376.011719-49.988282 22.390625-50 50v273.101562c.011718 27.609375 22.390624 49.988281 50 50h260c27.613281-.011719 49.992187-22.390625 50-50v-273c-.007813-27.609375-22.386719-49.992187-50-50zm30 323.097657c-.046876 16.550781-13.449219 29.953124-30 30h-260c-16.546876-.046876-29.949219-13.449219-30-30v-228.5h320zm0-248.5h-320v-24.597657c.050781-16.550781 13.453124-29.953125 30-30h41.5v19.199219c0 5.523438 4.480468 10 10 10 5.523437 0 10-4.476562 10-10v-19.199219h136.902343v19.199219c0 5.523438 4.476563 10 10 10 5.523438 0 10-4.476562 10-10v-19.199219h41.597657c16.550781.046875 29.953124 13.449219 30 30zm0 0"/><path d="m82.050781 230.398438h196.199219c5.523438 0 10-4.476563 10-10 0-5.519532-4.476562-10-10-10h-196.199219c-5.523437 0-10 4.480468-10 10 0 5.523437 4.476563 10 10 10zm0 0"/><path d="m82.050781 295.800781h113.5c5.523438 0 10-4.476562 10-10 0-5.523437-4.476562-10-10-10h-113.5c-5.523437 0-10 4.476563-10 10 0 5.523438 4.476563 10 10 10zm0 0"/></g></svg>