<svg height="512pt" viewBox="0 0 512 512" width="512pt" xmlns="http://www.w3.org/2000/svg"><path d="m250.226562 492.996094c-40.941406 29.910156-100.335937 23.972656-138.3125-14l-78.910156-78.914063c-37.972656-37.972656-43.910156-97.367187-14-138.308593 19.304688-26.941407 49.636719-42.851563 82.308594-43.699219 13.363281-.210938 26.300781-8.484375 33.726562-21.425781 10.609376-18.246094 25.667969-37.550782 37.546876-47.730469 35.214843-30.972657 90.582031-27.789063 125.582031 7.210937l57.699219 57.699219c35.003906 35.003906 38.1875 90.367187 7.214843 125.582031-10.183593 11.882813-29.488281 26.941406-47.730469 37.550782-12.941406 7.421874-21.214843 20.363281-21.425781 33.726562-.847656 32.667969-16.757812 63.003906-43.699219 82.308594zm0 0" fill="#ff9f00"/><path d="m250.226562 492.996094c-40.941406 29.910156-100.335937 23.972656-138.3125-14l-39.453124-39.457032 254.558593-254.558593 28.847657 28.851562c35.003906 35 38.1875 90.367188 7.214843 125.582031-10.183593 11.878907-29.488281 26.941407-47.730469 37.546876-12.941406 7.425781-21.214843 20.363281-21.425781 33.726562-.847656 32.667969-16.757812 63.003906-43.699219 82.308594zm0 0" fill="#e47500"/><path d="m199.738281 418.324219c-5.9375 5.941406-15.269531 5.941406-21.210937 0l-84.851563-84.851563c-5.941406-5.941406-5.941406-15.273437 0-21.214844 5.9375-5.9375 15.269531-5.9375 21.210938 0l84.851562 84.855469c5.941407 5.9375 5.941407 15.273438 0 21.210938zm0 0" fill="#68544f"/><path d="m488.183594 108.667969c-5.9375 5.9375-15.273438 5.9375-21.210938 0l-63.640625-63.640625c-5.941406-5.941406-5.941406-15.273438 0-21.214844 5.941407-5.9375 15.273438-5.9375 21.210938 0l63.640625 63.640625c5.941406 5.941406 5.941406 15.273437 0 21.214844zm0 0" fill="#725d57"/><path d="m178.523438 291.046875 203.589843-203.589844 42.425781 42.425781-203.589843 203.589844zm0 0" fill="#68544f"/><path d="m382.117188 87.457031 53.03125-53.035156 42.425781 42.425781-53.03125 53.035156zm0 0" fill="#68544f"/><g fill="#53433f"><path d="m199.738281 312.257812 203.589844-203.589843 21.210937 21.214843-203.589843 203.589844zm0 0"/><path d="m199.738281 418.324219c-5.9375 5.941406-15.269531 5.941406-21.210937 0l-42.425782-42.425781 21.210938-21.210938 42.425781 42.425781c5.941407 5.9375 5.941407 15.273438 0 21.210938zm0 0"/><path d="m403.328125 108.667969 53.035156-53.03125 21.210938 21.214843-53.03125 53.03125zm0 0"/></g><path d="m466.972656 108.667969-31.820312-31.820313 21.210937-21.214844 31.820313 31.820313c5.941406 5.941406 5.941406 15.273437 0 21.214844-5.9375 5.9375-15.273438 5.9375-21.210938 0zm0 0" fill="#68544f"/><path d="m445.757812 151.09375c-5.9375 5.9375-15.273437 5.9375-21.210937 0l-63.640625-63.640625c-5.941406-5.941406-5.941406-15.273437 0-21.214844 5.941406-5.9375 15.273438-5.9375 21.210938 0l63.640624 63.640625c5.941407 5.941406 5.941407 15.273438 0 21.214844zm0 0" fill="#725d57"/><path d="m445.757812 151.09375c-5.9375 5.9375-15.273437 5.9375-21.210937 0l-31.820313-31.820312 21.210938-21.214844 31.820312 31.820312c5.941407 5.941406 5.941407 15.273438 0 21.214844zm0 0" fill="#68544f"/><path d="m220.953125 333.472656c-11.667969 11.667969-30.757813 11.667969-42.425781 0-11.667969-11.667968-11.667969-30.757812 0-42.425781 11.667968-11.667969 30.757812-11.667969 42.425781 0s11.667969 30.757813 0 42.425781zm0 0" fill="#53433f"/><path d="m220.953125 333.472656c-11.667969 11.667969-30.757813 11.667969-42.425781 0l42.425781-42.425781c11.667969 11.667969 11.667969 30.757813 0 42.425781zm0 0" fill="#3e322e"/><path d="m501.125 74.515625c-1.484375 1.484375-2.96875 2.542969-4.667969 3.390625l-40.09375 20.15625-42.425781-42.425781 19.941406-39.882813c1.058594-1.910156 2.121094-3.394531 3.605469-4.878906 17.820313-15.273438 44.550781-14.425781 61.304687 2.332031 16.761719 16.757813 17.609376 43.488281 2.335938 61.308594zm0 0" fill="#ff9f00"/><path d="m456.363281 98.058594-21.210937-21.210938 63.640625-63.640625c16.757812 16.757813 17.605469 43.488281 2.332031 61.304688-1.484375 1.488281-2.96875 2.546875-4.667969 3.394531zm0 0" fill="#e47500"/></svg>