<svg xmlns="http://www.w3.org/2000/svg" width="560" height="560" viewBox="-49 0 420 420.004" style="zoom:1"><path fill="#f8ec7d" d="m312.800781 117.804688v.199218h-68.097656c-22.09375.007813-40.007813-17.90625-40-40v-67.898437h.199219zm0 0"/><path fill="#e48e66" d="m312.800781 119.605469v250.296875c.007813 22.09375-17.90625 40.007812-40 40h-222.796875c-22.097656.007812-40.007812-17.90625-40-40v-320c-.007812-22.09375 17.902344-40.003906 40-40h152.597656l2 .203125v67.898437c-.003906 22.09375 17.90625 40.007813 40 40h68.101563v1.601563zm0 0"/><path fill="#d18162" d="M141.203125,11.203125 h-91.199219 c-22.097656,-.003906 -40.007812,17.90625 -40,40 v318.699219 c-.007812,22.09375 17.902344,40.007812 40,40 h91.097656 v-398.699219 m0,0" visibility="hidden"/><path fill="#63316d" d="m211.902344 3.105469-.101563-.101563c-1.886719-1.945312-4.488281-3.0312498-7.199219-2.99999975-.335937-.01562505-.671874.01562495-1 .10156275-.300781 0-.699218-.10156275-1-.10156275h-152.597656c-27.613281.01171875-49.9921872 22.39062475-49.99999975 49.99999975v320c.00781255 27.609375 22.38671875 49.988282 49.99999975 50h222.699219c27.609375-.011718 49.988281-22.390625 50-50v-252.199218c-.019531-2.652344-1.058594-5.195313-2.902344-7.101563zm2.699218 30.898437 74.199219 74h-44.199219c-16.546874-.046875-29.953124-13.453125-30-30zm88.199219 335.898438c-.046875 16.550781-13.449219 29.953125-30 30h-222.796875c-16.550781-.046875-29.953125-13.449219-30-30v-320c.046875-16.546875 13.449219-29.949219 30-30h144.597656v58.101562c.011719 27.609375 22.390626 49.988282 50 50h58.101563v241.898438zm0 0"/><text font-family="Roboto" style="text-shadow:3px 3px 3px #141414" id="text1" x="152" y="305.253" fill="#000" stroke="none" stroke-width="1" font-size="256" font-weight="bolder" text-anchor="middle" text-rendering="geometricPrecision">L</text></svg>