<?xml version="1.0"?>
<svg xmlns="http://www.w3.org/2000/svg" height="512px" viewBox="-6 0 339 339.1" width="512px"><path d="m.0507812 306.101562c.015625 18.214844 14.7812498 32.980469 32.9999998 33h260c18.21875-.019531 32.980469-14.785156 33-33v-231.5h-325.9999998zm64.8984378-139h196.199219c3.867187 0 7 3.132813 7 7 0 3.863282-3.132813 7-7 7h-196.199219c-3.863281 0-7-3.136718-7-7 0-3.867187 3.136719-7 7-7zm0 65.398438h113.5c3.867187 0 7 3.132812 7 7s-3.132813 7-7 7h-113.5c-3.863281 0-7-3.132812-7-7s3.136719-7 7-7zm0 0" fill="#933EC5"/><path d="m293.050781 0h-44.5v22.199219c0 3.867187-3.136719 7-7 7-3.867187 0-7-3.132813-7-7v-22.199219h-143v22.199219c0 3.867187-3.136719 7-7 7-3.867187 0-7-3.132813-7-7v-22.199219h-44.5c-18.21875.0195312-32.9843748 14.78125-32.9999998 33v27.601562h325.9999998v-27.601562c-.019531-18.21875-14.78125-32.9804688-33-33zm0 0" fill="#933EC5"/></svg>
