<?xml version="1.0" encoding="iso-8859-1"?>
<!-- Generator: Adobe Illustrator 19.0.0, SVG Export Plug-In . SVG Version: 6.00 Build 0)  -->
<svg version="1.1" id="Capa_1" xmlns="http://www.w3.org/2000/svg" xmlns:xlink="http://www.w3.org/1999/xlink" x="0px" y="0px"
	 viewBox="0 0 512 512" style="enable-background:new 0 0 512 512;" xml:space="preserve">
<g transform="matrix(1.25 0 0 -1.25 0 45)">
	<g>
		<g>
			<path style="fill:#EBC05C;" d="M409.6-328.089c0-25.134-20.378-45.511-45.511-45.511H45.511C20.378-373.6,0-353.222,0-328.089
				V-9.511C0,15.622,20.378,36,45.511,36h318.578C389.222,36,409.6,15.622,409.6-9.511V-328.089z"/>
			<path style="fill:#000000;" d="M93.002-67.822c2.116,12.698,15.872,27.159,34.577,27.159c17.636,0,31.391-12.698,35.271-25.395
				l41.631-139.696h0.705l41.631,139.696c3.868,12.698,17.624,25.395,35.271,25.395c18.694,0,32.449-14.461,34.577-27.159
				l32.802-196.858c0.353-2.105,0.353-4.233,0.353-5.985c0-15.531-11.287-25.407-25.395-25.407c-18,0-25.042,8.112-27.511,24.69
				l-20.821,143.588h-0.717l-42.325-147.82c-2.469-8.465-9.159-20.457-28.217-20.457c-19.046,0-25.759,11.992-28.228,20.457
				l-42.337,147.82h-0.694l-20.821-143.588c-2.469-16.577-9.523-24.69-27.511-24.69c-14.108,0-25.407,9.876-25.407,25.407
				c0,1.752,0,3.88,0.364,5.985L93.002-67.822z"/>
		</g>
	</g>
</g>
<g>
</g>
<g>
</g>
<g>
</g>
<g>
</g>
<g>
</g>
<g>
</g>
<g>
</g>
<g>
</g>
<g>
</g>
<g>
</g>
<g>
</g>
<g>
</g>
<g>
</g>
<g>
</g>
<g>
</g>
</svg>
