<?xml version="1.0" encoding="iso-8859-1"?>
<!-- Generator: Adobe Illustrator 19.0.0, SVG Export Plug-In . SVG Version: 6.00 Build 0)  -->
<svg version="1.1" id="Capa_1" xmlns="http://www.w3.org/2000/svg" xmlns:xlink="http://www.w3.org/1999/xlink" x="0px" y="0px"
	 viewBox="0 0 512 512" style="enable-background:new 0 0 512 512;" xml:space="preserve">
<g transform="matrix(1.25 0 0 -1.25 0 45)">
	<g>
		<g>
			<path style="fill:#EBC05C;" d="M409.6-328.089c0-25.134-20.378-45.511-45.511-45.511H45.511C20.378-373.6,0-353.222,0-328.089
				V-9.511C0,15.622,20.378,36,45.511,36h318.578C389.222,36,409.6,15.622,409.6-9.511V-328.089z"/>
			<path style="fill:#000000;" d="M175.536-153.895h36.329c19.399,0,32.825,11.639,32.825,31.391
				c0,20.105-13.426,31.05-32.825,31.05h-36.329V-153.895z M122.618-70.291c0,16.93,9.523,27.523,27.159,27.523h62.089
				c54.329,0,87.848-24.348,87.848-79.735c0-38.798-29.286-61.03-65.274-66.674l59.984-64.205
				c4.927-5.291,7.043-10.581,7.043-15.519c0-13.756-10.934-27.159-26.442-27.159c-6.36,0-14.825,2.469-20.469,9.17l-78.325,94.891
				h-0.694v-76.55c0-17.647-11.287-27.511-26.465-27.511c-15.167,0-26.453,9.865-26.453,27.511
				C122.618-268.549,122.618-70.291,122.618-70.291z"/>
		</g>
	</g>
</g>
<g>
</g>
<g>
</g>
<g>
</g>
<g>
</g>
<g>
</g>
<g>
</g>
<g>
</g>
<g>
</g>
<g>
</g>
<g>
</g>
<g>
</g>
<g>
</g>
<g>
</g>
<g>
</g>
<g>
</g>
</svg>
