<svg xmlns="http://www.w3.org/2000/svg" xmlns:xlink="http://www.w3.org/1999/xlink" id="Capa_1" x="0" y="0" enable-background="new 0 0 512.002 512.002" version="1.1" viewBox="0 0 512.002 512.002" xml:space="preserve"><linearGradient id="SVGID_1_" x1="236.938" x2="236.938" y1="458.428" y2="-71.182" gradientTransform="matrix(1.0667 0 0 -1.0667 3.2666 557.5352)" gradientUnits="userSpaceOnUse"><stop offset="0" stop-color="#FFCF95"/><stop offset=".427" stop-color="#FFC954"/><stop offset="1" stop-color="#FFC200"/></linearGradient><path fill="url(#SVGID_1_)" d="M274.84,23.212l67.722,137.218l151.429,22.004c17.232,2.503,24.112,23.68,11.644,35.835	L396.058,325.077l25.867,150.817c2.944,17.162-15.07,30.25-30.482,22.147L256,426.835l-135.442,71.206	c-15.412,8.102-33.426-4.985-30.482-22.147l25.867-150.817L6.367,218.268c-12.469-12.155-5.588-33.33,11.644-35.835l151.429-22.004	l67.721-137.217C244.868,7.597,267.133,7.597,274.84,23.212z"/><linearGradient id="SVGID_2_" x1="361.338" x2="201.238" y1="390.131" y2="390.131" gradientTransform="matrix(1.0667 0 0 -1.0667 3.2666 557.5352)" gradientUnits="userSpaceOnUse"><stop offset="0" stop-color="#FFC200" stop-opacity="0"/><stop offset=".203" stop-color="#FB0" stop-opacity=".203"/><stop offset=".499" stop-color="#FFA700" stop-opacity=".499"/><stop offset=".852" stop-color="#F80" stop-opacity=".852"/><stop offset="1" stop-color="#FF7800"/></linearGradient><path fill="url(#SVGID_2_)" d="M342.56,160.43L274.84,23.212c-3.853-7.807-11.346-11.711-18.839-11.711v259.789	L342.56,160.43z"/><linearGradient id="SVGID_3_" x1="388.687" x2="346.287" y1="144.838" y2="353.638" gradientTransform="matrix(1.0667 0 0 -1.0667 3.2666 557.5352)" gradientUnits="userSpaceOnUse"><stop offset="0" stop-color="#FFC200" stop-opacity="0"/><stop offset=".203" stop-color="#FB0" stop-opacity=".203"/><stop offset=".499" stop-color="#FFA700" stop-opacity=".499"/><stop offset=".852" stop-color="#F80" stop-opacity=".852"/><stop offset="1" stop-color="#FF7800"/></linearGradient><path fill="url(#SVGID_3_)" d="M396.058,325.077l109.575-106.81c6.151-5.996,7.586-14.185,5.399-21.247L256,271.289	L396.058,325.077z"/><linearGradient id="SVGID_4_" x1="183.098" x2="349.158" y1="35.109" y2="201.169" gradientTransform="matrix(1.0667 0 0 -1.0667 3.2666 557.5352)" gradientUnits="userSpaceOnUse"><stop offset="0" stop-color="#FFC200" stop-opacity="0"/><stop offset=".203" stop-color="#FB0" stop-opacity=".203"/><stop offset=".499" stop-color="#FFA700" stop-opacity=".499"/><stop offset=".852" stop-color="#F80" stop-opacity=".852"/><stop offset="1" stop-color="#FF7800"/></linearGradient><path fill="url(#SVGID_4_)" d="M413.63,496.393L256,271.289v155.546l135.442,71.206	C399.176,502.107,407.563,500.835,413.63,496.393z"/><linearGradient id="SVGID_5_" x1="64.678" x2="187.078" y1="245.108" y2="142.708" gradientTransform="matrix(1.0667 0 0 -1.0667 3.2666 557.5352)" gradientUnits="userSpaceOnUse"><stop offset="0" stop-color="#FFC200" stop-opacity="0"/><stop offset=".203" stop-color="#FB0" stop-opacity=".203"/><stop offset=".499" stop-color="#FFA700" stop-opacity=".499"/><stop offset=".852" stop-color="#F80" stop-opacity=".852"/><stop offset="1" stop-color="#FF7800"/></linearGradient><path fill="url(#SVGID_5_)" d="M256,271.289l-140.058,53.788L90.076,475.894c-1.467,8.55,2.271,16.087,8.294,20.499	L256,271.289z"/><linearGradient id="SVGID_6_" x1="156.433" x2="106.833" y1="414.02" y2="273.22" gradientTransform="matrix(1.0667 0 0 -1.0667 3.2666 557.5352)" gradientUnits="userSpaceOnUse"><stop offset="0" stop-color="#FFC200" stop-opacity="0"/><stop offset=".203" stop-color="#FB0" stop-opacity=".203"/><stop offset=".499" stop-color="#FFA700" stop-opacity=".499"/><stop offset=".852" stop-color="#F80" stop-opacity=".852"/><stop offset="1" stop-color="#FF7800"/></linearGradient><path fill="url(#SVGID_6_)" d="M0.968,197.021L256,271.289l-86.56-110.86L18.011,182.434	C9.28,183.702,3.214,189.767,0.968,197.021L0.968,197.021z"/><linearGradient id="SVGID_7_" x1="343.14" x2="-21.26" y1="399.316" y2="244.116" gradientTransform="matrix(1.0667 0 0 -1.0667 3.2666 557.5352)" gradientUnits="userSpaceOnUse"><stop offset="0" stop-color="#FFC200" stop-opacity="0"/><stop offset=".203" stop-color="#FB0" stop-opacity=".203"/><stop offset=".499" stop-color="#FFA700" stop-opacity=".499"/><stop offset=".852" stop-color="#F80" stop-opacity=".852"/><stop offset="1" stop-color="#FF7800"/></linearGradient><path fill="url(#SVGID_7_)" d="M115.943,325.077L6.367,218.268c-6.151-5.996-7.586-14.185-5.399-21.247L256,271.289	L115.943,325.077z"/></svg>