<svg xmlns="http://www.w3.org/2000/svg" xmlns:xlink="http://www.w3.org/1999/xlink" width="200" height="200" x="0" y="0" fill="#000" enable-background="new 0 0 90 90" version="1.1" viewBox="0 0 90 90" xml:space="preserve"><path d="M28.152,66.836c0,1.105-0.896,2-2,2h-7.333c-1.104,0-2-0.895-2-2V53.182c0-1.105,0.896-2,2-2h7.333c1.104,0,2,0.895,2,2 V66.836z"/><path d="M43.16,66.836c0,1.105-0.896,2-2,2h-7.333c-1.104,0-2-0.895-2-2V43.175c0-1.104,0.896-2,2-2h7.333c1.104,0,2,0.896,2,2 V66.836z"/><g><path d="M58.171,66.836c0,1.105-0.896,2-2,2h-7.336c-1.104,0-2-0.895-2-2V33.169c0-1.104,0.896-2,2-2h7.336c1.104,0,2,0.896,2,2 V66.836z"/></g><g><path d="M73.182,66.836c0,1.105-0.896,2-2,2h-7.336c-1.104,0-2-0.895-2-2V23.164c0-1.104,0.896-2,2-2h7.336c1.104,0,2,0.896,2,2 V66.836z"/></g></svg>