<svg height='200' width='200'  fill="#000000" xmlns="http://www.w3.org/2000/svg" xmlns:xlink="http://www.w3.org/1999/xlink" version="1.1" x="0px" y="0px" viewBox="0 0 90 90" enable-background="new 0 0 90 90" xml:space="preserve"><path d="M26.152,53.182v13.654h-7.333V53.182H26.152 M26.152,51.182h-7.333c-1.104,0-2,0.895-2,2v13.654c0,1.105,0.896,2,2,2h7.333  c1.104,0,2-0.895,2-2V53.182C28.152,52.076,27.256,51.182,26.152,51.182L26.152,51.182z"></path><path d="M41.16,43.175v23.661h-7.333V43.175H41.16 M41.16,41.175h-7.333c-1.104,0-2,0.896-2,2v23.661c0,1.105,0.896,2,2,2h7.333  c1.104,0,2-0.895,2-2V43.175C43.16,42.071,42.265,41.175,41.16,41.175L41.16,41.175z"></path><path d="M56.171,33.169v33.667h-7.336V33.169H56.171 M56.171,31.169h-7.336c-1.104,0-2,0.896-2,2v33.667c0,1.105,0.896,2,2,2h7.336  c1.104,0,2-0.895,2-2V33.169C58.171,32.065,57.275,31.169,56.171,31.169L56.171,31.169z"></path><path d="M71.182,23.164v43.672h-7.336V23.164H71.182 M71.182,21.164h-7.336c-1.104,0-2,0.896-2,2v43.672c0,1.105,0.896,2,2,2h7.336  c1.104,0,2-0.895,2-2V23.164C73.182,22.059,72.286,21.164,71.182,21.164L71.182,21.164z"></path></svg>